<?xml version="1.0" encoding="iso-8859-1"?>
<!DOCTYPE svg PUBLIC "-//W3C//DTD SVG 1.1//EN" "http://www.w3.org/Graphics/SVG/1.1/DTD/svg11.dtd">
<svg 
 version="1.1" xmlns="http://www.w3.org/2000/svg" xmlns:xlink="http://www.w3.org/1999/xlink" x="0px" y="0px" width="512px"
	 height="512px" viewBox="0 0 512 512" style="enable-background:new 0 0 512 512;" xml:space="preserve"
><g id="afcae5a789ccd549f9c6e2a2f812ee2d"><g></g><g fill="#ffffff"><path style="display: inline; fill-rule: evenodd; clip-rule: evenodd;" d="M413.005,370.728
		C396.062,510.908,259.945,511.5,259.945,511.5s-0.282-0.007-0.764-0.027c19.252-9.836,39.705-29.494,44.217-68.813
		c4.704-40.979-24.019-76.726-47.758-116.724c-10.82-18.233-15.938-39.671-15.938-39.671s-3.896,2.761-5.737,8.219
		c-2.674,7.915-3.617,19.472-3.617,19.472s-3.999-19.568-2.13-38.807c1.927-19.827,9.729-39.336,9.729-39.336
		s-99.292,85.144-101.667,188.861c-0.324,14.11,1.376,26.146,4.488,36.443c-25.251-25.633-44.069-64.285-42.662-122.578
		C102.585,152.895,289.677,0.5,289.677,0.5s-14.698,34.925-18.333,70.411c-3.524,34.433,4.017,69.454,4.017,69.454
		s1.775-20.677,6.811-34.849c3.473-9.767,10.81-14.709,10.81-14.709s9.644,38.37,30.035,71.002
		C367.745,233.399,421.863,297.381,413.005,370.728z"></path></g></g></svg>