<?xml version="1.0" encoding="iso-8859-1"?>
<!DOCTYPE svg PUBLIC "-//W3C//DTD SVG 1.1//EN" "http://www.w3.org/Graphics/SVG/1.1/DTD/svg11.dtd">
<svg 
 version="1.1" xmlns="http://www.w3.org/2000/svg" xmlns:xlink="http://www.w3.org/1999/xlink" x="0px" y="0px" width="512px"
	 height="512px" viewBox="0 0 512 512" style="enable-background:new 0 0 512 512;" xml:space="preserve"
><g id="afcae5a789ccd549f9c6e2a2f81894d9"><g></g><g fill="#555555"><path style="display: inline;" d="M423.68,166.683c-74.695-42.025-129.404-38.624-129.404-38.624s-68.371-7.007-158.132,38.898
		c-21.113,10.796-38.45,24.218-52.219,37.331L0.5,106.958V256v149.042l83.819-97.788c13.478,13.947,29.426,27.837,46.58,37.489
		C205.59,386.77,260.3,383.367,260.3,383.367s68.375,7.008,158.132-38.898c63.53-32.482,93.068-88.756,93.068-88.756
		S472.418,194.104,423.68,166.683z M415.688,287.65c-17.641,0-31.938-14.297-31.938-31.938s14.297-31.938,31.938-31.938
		s31.938,14.297,31.938,31.938S433.328,287.65,415.688,287.65z"></path></g></g></svg>